<?xml version="1.0" encoding="UTF-8" standalone="no"?>
<svg width="128mm" height="128mm" viewBox="0 0 1511.8077 1511.8077" version="1.1" id="svg10"
   xmlns:xlink="http://www.w3.org/1999/xlink"
   xmlns="http://www.w3.org/2000/svg"
   xmlns:svg="http://www.w3.org/2000/svg">
   <defs id="defs7">
      <linearGradient id="linearGradient1336">
         <stop stop-color="#ffffff" offset="0" id="stop1777" style="stop-color:#ffffff;stop-opacity:1" />
         <stop stop-color="#ffffff" offset="0.33707988" id="stop4026" style="stop-color:#ffc7e4;stop-opacity:1" />
         <stop stop-color="#ffffff" offset="0.56790942" id="stop5566" style="stop-color:#ecc1ff;stop-opacity:1" />
         <stop stop-color="#a49cfe" offset="1" id="stop1779" style="stop-color:#a49cfe;stop-opacity:1" />
      </linearGradient>
      <radialGradient xlink:href="#linearGradient1336" id="radialGradient945" cx="535.02563" cy="528.03333" fx="535.02563" fy="528.03333" r="371.52689" gradientTransform="matrix(2.0055002,0,0,2.010384,-317.09103,-306.55613)" gradientUnits="userSpaceOnUse" />
   </defs>
   <path id="Selection" fill="none" stroke="black" stroke-width="1" d="m 33.871498,11.810997 c 0,0 14.038501,52.661879 14.038501,52.661879 C 61.5474,103.26713 77.11008,126.10678 108.075,154.01757 c 49.39547,44.52855 95.80274,58.53272 154.42352,84.6491 50.03723,22.27402 88.42249,41.01775 132.363,74.33127 45.92596,34.81535 76.91094,79.42192 105.42915,127.90985 0,0 45.06358,76.06716 45.06358,76.06716 18.37039,24.12694 36.07895,45.30872 60.08479,64.52055 8.4231,6.72902 31.84734,18.95828 34.87565,27.22815 2.08571,5.71479 -2.82776,20.20655 -4.37199,27.22814 -1.28352,10.45435 -0.56154,31.40208 0,42.90968 -0.26072,11.80015 0.98269,10.92246 3.36924,21.45483 8.44316,37.50697 17.02669,57.616 38.98692,89.72024 0,0 108.95882,144.33255 108.95882,144.33255 13.13602,19.66044 22.16077,40.53015 22.72232,64.36454 0.10027,4.66147 1.12307,19.03627 -7.90168,15.27187 -5.07391,-2.1064 -7.74122,-8.7184 -9.72666,-13.3214 0,0 -12.95554,-27.3062 -12.95554,-27.3062 -11.83245,-22.23502 -32.72976,-44.02143 -53.62707,-58.5132 0,0 23.8855,46.81055 23.8855,46.81055 14.66021,39.59395 14.92093,57.24545 17.86901,97.52205 1.28352,17.71 -9.08492,56.6017 -15.02119,74.1166 -7.54069,22.2156 -24.70777,53.1496 -41.11276,70.1379 -4.03105,4.174 -21.61929,19.2118 -27.65584,12.1122 -3.89068,-4.564 7.6209,-27.6767 9.847,-33.4891 13.87807,-36.1026 16.60554,-53.4809 16.14427,-91.6706 0,0 -3.44945,-35.1079 -3.44945,-35.1079 0,0 -1.48408,-21.4548 -1.48408,-21.4548 -6.09671,-33.4306 -25.02863,-76.80839 -40.6916,-107.27426 -16.60553,-32.27978 -23.86545,-50.1068 -52.30344,-75.16996 -28.55832,-25.14116 -76.67027,-38.56019 -112.64894,-51.004 -47.65068,-16.48122 -94.37883,-34.1327 -140.385,-54.61232 0,0 -36.09901,-15.74005 -36.09901,-15.74005 0,0 -64.176,-32.8064 -64.176,-32.8064 -10.26817,-5.71479 -20.43605,-9.7717 -26.07151,-20.32358 0,0 64.17601,-4.46651 64.17601,-4.46651 5.31457,-0.68266 19.2528,-3.04269 19.21269,-10.06427 -0.0802,-8.48442 -20.4561,-14.82334 -27.23469,-17.45644 -28.97948,-11.27354 -55.73285,-27.67674 -80.22001,-46.43997 -20.79703,-15.9351 -34.47455,-29.72471 -52.3235,-48.35141 -47.1092,-49.2096 -96.023345,-113.02799 -96.08351,-183.34135 8.30277,5.7733 10.8297,8.95251 18.049501,15.27194 19.292911,16.92982 32.910259,26.56499 56.153999,37.87754 14.60004,7.0996 23.78524,12.91191 40.11001,7.31415 C 154.32184,401.64543 118.54371,377.28444 87.498571,335.58404 56.292989,293.64957 25.568729,230.84541 16.684363,179.54883 c 0,0 -3.04836,-37.05836 -3.04836,-37.05836 0,0 -1.825006,-19.5044 -1.825006,-19.5044 0,0 2.587096,-44.860114 2.587096,-44.860114 3.28902,-26.01887 12.574485,-42.578104 19.473405,-66.314959 z m 1439.949102,5.85132 c 13.2363,6.455956 13.3166,16.598244 17.3676,29.256599 9.0849,28.339893 9.0449,58.376664 8.7039,87.769804 -0.8623,71.19106 -36.2595,153.3631 -81.1224,208.69708 -15.7433,19.40687 -33.0707,37.33142 -51.2406,54.5928 -11.4915,10.90297 -21.9803,16.09114 -28.0769,31.22655 26.653,4.05692 64.7375,-21.68889 84.231,-37.89704 11.0503,-9.18658 14.961,-15.11592 28.0769,-22.56659 -0.9827,43.28026 -17.147,76.98386 -39.9896,113.12551 -29.7216,47.02511 -71.3157,89.68123 -116.4394,123.11177 -21.0778,15.60352 -53.2259,34.1522 -78.2145,42.67563 -6.3574,2.16498 -23.8655,7.66523 -19.7141,17.12486 3.0684,7.02158 17.0468,7.74325 23.7251,8.52342 0,0 22.0605,3.45228 22.0605,3.45228 0,0 42.1155,0 42.1155,0 -5.5752,11.05899 -17.8289,17.33942 -28.077,23.83438 -21.6594,13.7506 -46.4875,27.59872 -70.1925,37.60448 -45.9059,19.42638 -97.6678,36.92183 -146.4015,48.17587 0,0 -82.22554,17.98305 -82.22554,17.98305 0,0 -62.17051,13.82862 -62.17051,13.82862 -22.38137,6.2024 -49.17486,14.43326 -68.187,27.69624 -15.04125,10.51288 -21.37862,24.90712 -28.2575,27.24765 -8.2426,2.80864 -16.52532,-9.47914 -21.03769,-14.82334 0,0 -43.37897,-54.61231 -43.37897,-54.61231 -20.55637,-25.78482 -50.99986,-73.66813 -58.74109,-105.32377 -3.7904,-15.48649 -3.02831,-27.30615 -3.00825,-42.90968 0.0201,-12.98993 1.10302,-23.0542 6.6382,-35.10791 8.44316,-18.39265 21.73962,-33.17699 22.00033,-54.61233 0.32089,-24.34148 -22.66215,-40.97874 -44.68254,-46.81055 1.32363,-15.74005 8.022,-12.63885 17.26736,-23.4833 0,0 12.39399,-19.0753 12.39399,-19.0753 8.44316,-10.02526 19.93467,-11.89768 32.50916,-12.05372 17.20719,-0.19504 48.01167,0.35108 61.80951,11.01998 17.54813,13.57507 25.14897,48.56596 31.2858,68.94806 6.97915,23.13222 23.08331,68.79202 55.31169,61.38035 19.53357,-4.48602 46.20673,-30.23182 60.16501,-43.8264 40.57127,-39.51591 67.14415,-86.61903 95.40164,-134.58035 0,0 26.7534,-44.86012 26.7534,-44.86012 43.2185,-59.58594 104.2659,-98.92631 170.648,-130.17236 45.9661,-21.63038 95.3816,-37.64349 138.3795,-64.87164 50.9197,-32.24077 85.4945,-63.44781 104.9479,-120.927275 5.3145,-15.720545 9.2052,-32.162754 9.3656,-48.760998 z M 836.07156,971.42746 c 0,0 4.01099,0 4.01099,0 12.19344,16.75427 21.45885,28.2619 31.44624,46.81054 13.85801,25.7263 28.67865,78.1346 28.71877,107.2742 0,0 0,52.6619 0,52.6619 -0.20055,15.584 -5.73573,45.8158 -11.13053,60.4636 0,0 -9.20524,19.5044 -9.20524,19.5044 0,0 -14.3995,33.1575 -14.3995,33.1575 0,0 -38.24488,58.5132 -38.24488,58.5132 0,0 -33.59212,58.5132 -33.59212,58.5132 -8.30278,14.6088 -15.06131,30.2318 -17.50803,46.8105 -1.92528,13.0875 -1.62445,34.9324 -10.28821,44.8602 -7.76129,-20.6552 -8.24261,-42.8122 -10.36843,-64.3646 0,0 -2.64726,-37.0582 -2.64726,-37.0582 3.81044,-58.3962 8.4231,-93.9138 39.08719,-146.2831 0,0 -2.00549,-1.9504 -2.00549,-1.9504 -20.09512,14.7843 -41.59408,42.6366 -53.50675,64.3645 -7.74123,14.1212 -4.93353,13.6531 -16.68576,31.2071 0,0 -4.01101,0 -4.01101,0 -10.6492,-22.3521 0.32089,-62.8822 11.5918,-83.869 13.69756,-25.4533 35.17647,-46.869 52.18311,-70.2158 18.95197,-26.0384 39.70891,-65.3202 50.37816,-95.5715 10.22805,-29.0032 10.22805,-48.3125 10.18794,-78.0177 -0.0401,-19.60192 -7.05936,-34.34724 -4.01099,-46.81054 z" style="fill:url(#radialGradient945);fill-opacity:1;stroke:none;stroke-width:1.16798;stroke-miterlimit:4;stroke-dasharray:none;stroke-opacity:1" />
</svg>
